<svg width="1024" height="1024" viewBox="0 0 1024 1024" fill="none" xmlns="http://www.w3.org/2000/svg">
<rect width="1024" height="1024" fill="white"/>
<path d="M940.5 356.5L950.5 351.5V338.5V330.5V323L944.5 319L940.5 311.5V308L946 303L950.5 296.5V287.5L946 284.5H940.5H936.5L930.5 287.5L921.5 284.5L913 277.5L909 266.5L907 263L896.5 261H880.5L883 269L880.5 284.5L875.5 296.5L873 303L875.5 306L880.5 308V317.5V330.5L883 338.5L888.5 342.5L892.5 345.5L900.5 349V356.5L907 360.5L918 362.5L927.5 360.5L940.5 356.5Z" fill="#E19A80"/>
<path d="M670.5 453.5L664.5 454.5V449.5L663 443.5L661 438.5L660 429.5L661 426.5V422.5L663 420H668L674.5 421L678.5 422.5L684 424L691 425L690 447.5L684 448.5L680 449.5L675.5 452L670.5 453.5Z" fill="#E19A80"/>
<path d="M678 341.5L671 339.5L666.5 359V363L668 367.5L670 366.5H676L683 365.5H687H694L698 366.5L701.5 369L703.5 372L707 350.5C704.333 350.333 698.8 349.9 698 349.5C697.2 349.1 692.667 348 690.5 347.5C688.333 346.667 683.8 344.8 683 344C682.2 343.2 679.333 342 678 341.5Z" fill="#E19A80"/>
<path d="M445 709.5V701L463.5 683L469 686L476.5 689L483.5 692L491.5 693.5H499H508.5L518.5 692L528.5 690.5L533.5 692V696.5L530.5 702.5L519.5 709.5L509.5 712.5L493 714.5H481.5L472.5 716V721.5L467 724.5L460.5 729H452L448.5 726.5L447 719L445 709.5Z" fill="#6B433C"/>
<path d="M135.5 498L149.5 517L162.5 513L178.5 509L196.5 502L209.5 493L222 482L232.5 472.5L226 464L217.5 449.5L213 440.5L207.5 430.5L205 424V421V418.5L209.5 414.5H220H235.5L258 416.5H278.5L305.5 418.5L310 390L286 386L235.5 378L196.5 373.5L178.5 365.5L186.5 360H209.5L239 355L311 345.5L308 316L290 318L246.5 322L209.5 324.5L158.5 327.5H144.5H135.5H126.5V332V336L121 340L112.5 341H102L92 340L87 336L81.5 329.5H79L77 336L73.5 349L69.5 365.5V383L72 391.5L81.5 406.5L92 424L103.5 445.5L121 478L135.5 498Z" fill="#4A8CF9"/>
<rect x="379.633" y="291.041" width="291.113" height="144.151" rx="20" transform="rotate(5.41012 379.633 291.041)" fill="#DCDCDC"/>
<path d="M375.636 330.968L372.33 332.49L368.975 310.747L369.469 310.671L373.422 310.061L376.881 309.527L379.998 310.058L384.598 310.36L388.362 311.803L392.773 314.158L396.766 317.083L398.858 320.807L399.545 325.255L398.026 328.525L395.213 329.97L389.777 330.809L386.813 331.267L380.16 330.776L375.636 330.968Z" fill="#E19A80"/>
<path d="M375.564 425.585L369.558 426.005L366.686 404.188L367.609 403.54L369.092 403.311L372.057 402.854L374.68 403.461L376.657 403.156L379.622 402.698L382.169 402.811L385.133 402.353C386.451 402.15 389.201 401.827 389.657 402.161C390.113 402.496 392.204 402.274 393.192 402.122C394.257 402.463 396.401 403.246 396.462 403.641L396.767 405.617L397.225 408.582L397.606 411.053C397.667 411.448 396.897 413.018 396.505 413.753L394.568 417.593L393.885 419.722L389.818 422.879L386.93 423.831L382.977 424.441L375.564 425.585Z" fill="#E19A80"/>
<path d="M646.207 364.485L645.293 373.173C644.932 376.61 644.034 379.025 642.6 380.419C641.163 381.844 639.14 382.419 636.53 382.145C635.321 382.018 634.289 381.732 633.435 381.288C632.577 380.876 631.868 380.432 631.307 379.954C630.657 379.403 630.107 378.814 629.658 378.188C629.292 378.922 628.85 379.599 628.335 380.221C627.819 380.842 627.216 381.374 626.526 381.816C625.836 382.258 625.03 382.576 624.109 382.768C623.216 382.996 622.181 383.048 621.003 382.924C619.699 382.787 618.476 382.481 617.335 382.007C616.226 381.537 615.286 380.843 614.514 379.925C613.741 379.007 613.173 377.837 612.808 376.415C612.442 374.993 612.367 373.263 612.581 371.227L613.651 361.059L646.207 364.485ZM631.655 367.008L630.817 374.98C631.12 375.462 631.539 375.908 632.075 376.319C632.519 376.687 633.078 377.036 633.751 377.364C634.456 377.695 635.318 377.915 636.337 378.022C638.214 378.22 639.523 377.859 640.263 376.939C641.032 376.055 641.509 374.737 641.693 372.987L642.205 368.118L631.655 367.008ZM616.809 365.445L616.126 371.938C615.905 374.038 616.281 375.67 617.252 376.834C618.224 377.998 619.616 378.676 621.43 378.867C622.226 378.95 622.97 378.916 623.661 378.764C624.35 378.643 624.959 378.353 625.49 377.894C626.053 377.439 626.523 376.796 626.9 375.967C627.277 375.138 627.532 374.087 627.666 372.814L628.314 366.656L616.809 365.445ZM634.926 390.051L634.954 393.916L610.465 391.339L610.867 387.52L634.926 390.051ZM641.818 390.149C642.549 390.226 643.129 390.528 643.556 391.056C644.012 391.619 644.201 392.266 644.124 392.998C644.044 393.762 643.722 394.372 643.159 394.827C642.625 395.318 641.992 395.525 641.26 395.448C640.528 395.371 639.936 395.035 639.484 394.44C639.06 393.881 638.888 393.219 638.969 392.456C639.046 391.724 639.35 391.128 639.88 390.669C640.44 390.245 641.086 390.072 641.818 390.149ZM645.498 401.957L645.526 405.822L609.342 402.014L609.743 398.195L645.498 401.957ZM644.375 412.633L644.402 416.497L608.218 412.69L608.62 408.871L644.375 412.633Z" fill="#5C5C5C"/>
<path d="M425.498 308.641L425.946 304.384L427.497 304.547L426.426 314.731L424.874 314.568L425.322 310.311L413.308 309.047L413.484 307.376L425.498 308.641ZM417.667 315.212C416.381 315.076 415.39 315.26 414.693 315.763C414.009 316.281 413.615 317.031 413.511 318.012C413.41 318.98 413.642 319.769 414.208 320.378C414.774 320.987 415.68 321.357 416.926 321.489C418.252 321.628 419.271 321.44 419.982 320.925C420.692 320.423 421.099 319.675 421.204 318.681C421.308 317.686 421.064 316.89 420.47 316.291C419.888 315.707 418.954 315.347 417.667 315.212ZM417.865 313.523C418.873 313.629 419.692 313.876 420.321 314.264C420.964 314.654 421.458 315.115 421.804 315.647C422.164 316.181 422.394 316.735 422.494 317.308C422.607 317.897 422.636 318.443 422.583 318.947C422.533 319.424 422.399 319.933 422.182 320.473C421.976 321.028 421.649 321.523 421.201 321.958C420.766 322.395 420.2 322.738 419.504 322.987C418.821 323.236 417.975 323.308 416.967 323.202C415.92 323.092 415.069 322.835 414.414 322.431C413.758 322.04 413.25 321.578 412.891 321.044C412.545 320.511 412.322 319.952 412.223 319.365C412.11 318.776 412.08 318.237 412.132 317.746C412.185 317.242 412.32 316.72 412.538 316.18C412.756 315.64 413.082 315.151 413.517 314.715C413.963 314.292 414.541 313.958 415.251 313.711C415.959 313.477 416.831 313.414 417.865 313.523ZM424.384 328.594L421.4 328.28L421.097 331.164L419.804 331.028L420.107 328.144L414.797 327.585C414.359 327.539 413.994 327.508 413.701 327.49C413.406 327.486 413.169 327.508 412.99 327.556C412.81 327.604 412.675 327.684 412.583 327.795C412.504 327.907 412.455 328.056 412.435 328.242C412.395 328.747 412.519 329.35 412.808 330.051L411.544 330.401C411.299 329.932 411.149 329.501 411.097 329.107C411.03 328.724 411.016 328.347 411.055 327.976C411.147 327.101 411.458 326.51 411.986 326.204C412.526 325.912 413.373 325.827 414.526 325.948L420.275 326.553L420.467 324.723L421.76 324.859L421.568 326.689L424.352 326.982L424.384 328.594ZM414.887 338.198C414.901 337.932 414.914 337.678 414.926 337.438C414.938 337.198 414.943 336.957 414.942 336.716C414.952 336.489 414.954 336.281 414.947 336.093C414.928 335.126 414.787 334.427 414.524 333.997C414.274 333.569 413.871 333.325 413.314 333.267C412.85 333.218 412.484 333.32 412.216 333.573C411.96 333.841 411.807 334.207 411.758 334.672C411.691 335.308 411.738 335.883 411.899 336.396C412.071 336.923 412.311 337.445 412.619 337.96L414.887 338.198ZM411.229 337.793C410.936 337.132 410.706 336.518 410.538 335.951C410.381 335.398 410.336 334.81 410.402 334.187C410.495 333.298 410.782 332.611 411.262 332.126C411.754 331.655 412.497 331.471 413.492 331.576C414.009 331.63 414.446 331.81 414.803 332.116C415.159 332.422 415.441 332.8 415.648 333.251C415.868 333.716 416.022 334.229 416.11 334.788C416.199 335.347 416.233 335.913 416.213 336.488C416.214 336.729 416.201 337.043 416.174 337.429C416.16 337.816 416.149 338.117 416.14 338.33C416.604 338.379 417.016 338.409 417.377 338.42C417.751 338.433 418.071 338.386 418.337 338.28C418.616 338.175 418.836 337.997 418.996 337.746C419.156 337.508 419.26 337.15 419.31 336.673C419.351 336.288 419.363 335.914 419.348 335.551C419.346 335.188 419.333 334.865 419.309 334.581C419.278 334.243 419.237 333.93 419.187 333.643L420.593 333.469C420.637 333.809 420.673 334.175 420.698 334.567C420.73 334.905 420.742 335.295 420.736 335.737C420.743 336.18 420.72 336.654 420.667 337.158C420.596 337.834 420.439 338.367 420.197 338.757C419.954 339.16 419.648 339.457 419.279 339.646C418.923 339.85 418.521 339.968 418.075 340.002C417.641 340.05 417.185 340.049 416.708 339.999L411.934 339.496C411.749 339.477 411.55 339.456 411.338 339.434C411.137 339.426 410.937 339.418 410.737 339.411C410.535 339.416 410.327 339.421 410.112 339.425L410.114 337.877L411.229 337.793ZM424.727 343.678L424.739 345.288L409.662 343.701L409.829 342.11L424.727 343.678ZM410.556 346.483C410.874 346.516 411.134 346.658 411.336 346.907C411.551 347.157 411.641 347.448 411.606 347.78C411.57 348.125 411.419 348.404 411.156 348.617C410.905 348.832 410.621 348.923 410.303 348.889C409.971 348.855 409.705 348.706 409.505 348.444C409.305 348.181 409.222 347.878 409.259 347.533C409.294 347.201 409.436 346.935 409.685 346.733C409.934 346.531 410.224 346.448 410.556 346.483ZM417.219 347.184C417.537 347.217 417.797 347.359 417.999 347.608C418.214 347.858 418.304 348.149 418.269 348.481C418.233 348.826 418.083 349.105 417.819 349.318C417.568 349.533 417.284 349.624 416.966 349.591C416.634 349.556 416.368 349.407 416.168 349.145C415.968 348.882 415.886 348.579 415.922 348.234C415.957 347.902 416.099 347.636 416.348 347.434C416.597 347.232 416.887 347.149 417.219 347.184Z" fill="#5C5C5C"/>
<path d="M666.311 338.574L671.603 339.569L666.747 358.874L663.023 358.079L659.886 357.679L655.962 358.453L649.785 358.142L644.589 357.638L642.336 356.553L640.381 354.391L639.801 351.447L640.595 347.723L642.764 343.218L644.733 340.282L647.683 337.152L653.079 336.088L659.94 337.283L666.311 338.574Z" fill="#E19A80"/>
<path d="M657.042 431.117L660.677 428.872L664.726 454.574L661.59 454.173L655.807 453.275L648.849 451.59L645.028 450.305L640.129 448.723L638.077 446.07L635.832 442.436L635.058 438.511L634.477 435.568L636.646 431.063L639.59 430.483L644.785 430.987L648.903 431.194L653.118 431.891L657.042 431.117Z" fill="#E19A80"/>
<line x1="601.489" y1="331.237" x2="593.489" y2="415.237" stroke="black" stroke-width="5"/>
<line x1="580.489" y1="329.237" x2="572.489" y2="413.237" stroke="black" stroke-width="5"/>
<line x1="557.485" y1="327.276" x2="551.485" y2="381.276" stroke="black" stroke-width="5"/>
<line x1="412.917" y1="354.204" x2="408.492" y2="408.355" stroke="black" stroke-width="5"/>
<line x1="536.485" y1="325.276" x2="530.485" y2="379.276" stroke="black" stroke-width="5"/>
<line x1="514.485" y1="323.276" x2="508.485" y2="377.276" stroke="black" stroke-width="5"/>
<line x1="493.485" y1="321.276" x2="487.485" y2="375.276" stroke="black" stroke-width="5"/>
<line x1="471.485" y1="319.27" x2="462.485" y2="402.27" stroke="black" stroke-width="5"/>
<line x1="450.485" y1="317.27" x2="441.485" y2="400.27" stroke="black" stroke-width="5"/>
<path d="M239.689 638.32L135 756.821L181.246 789L306.262 647.514L275.262 575.494V571.408L277.803 570.386L352.508 608.184L441.951 704.211L476 672.032L375.885 553.02L239.689 481L222.918 497.345L206.656 509.093L187.344 518.798L168.033 524.416L155.328 527.992L239.689 638.32Z" fill="#A7896D"/>
<path d="M310.917 345L308 315.85L345.333 312L350 337.85L343 342.25L310.917 345Z" fill="#0060FF"/>
<path d="M304 419.241L308.216 390L327.189 392.759L339.838 395.517L343 397.724V410.966L339.838 422H335.095H327.189H319.811L304 419.241Z" fill="#0060FF"/>
<path d="M76 304.588L80.2025 333.491L83.8797 336.119L88.6076 342.425L93.3354 344.002L97.0127 345H103.842H110.146H115.924L121.703 344.002L125.905 342.425L127.481 339.272V336.119V333.491V329.813L129.057 327.185V323.506L130.633 321.93H134.31L139.038 320.353H143.241H148.494V317.2L150.595 314.047V309.317V304.588L153.222 301.435V296.179V294.077V290.924V285.144H156.899H159V282.516L156.899 277.261V272.531L153.222 267.801L150.595 263.597V259.919V253.087V248.883L153.222 244.679V241H148.494H140.614L134.31 242.577H129.057L123.278 244.679H118.551L115.924 246.781L114.348 248.883V255.189L108.044 263.597H103.842L97.0127 267.801H91.7595L87.0316 263.597H82.3038H80.2025L76 267.801V272.531V278.837L80.2025 282.516L85.4557 285.144L87.0316 290.924V296.179L82.3038 301.435L76 304.588Z" fill="#E19A80"/>
<path d="M149 516.5L156.5 528.5L187 520L207.5 509.5L217 502.5L223.5 497.5L232 489L241.5 481L240 479.5L232 473L227 477.5L212 491L195.5 502.5L175.5 509.5L160.5 514L149 516.5Z" fill="#ABABAB"/>
<path d="M146.02 298.023C145.909 297.137 140.59 294.692 141.558 295.902C143.178 297.927 145.374 298.681 147.995 298.681" stroke="black" stroke-linecap="round"/>
<path d="M86.1388 303L79.9378 306L77.3541 304.5L73.2201 301.5L68.0526 296.5L63.9187 292L56.6842 282.5L53.067 275L51 265.5V258V250L52.5502 241.5L53.067 234.5L57.201 228L59.7847 223L63.9187 217.5L70.1196 212L76.3206 207.5L82.5215 203.5L87.689 201.5L96.4737 200L103.191 199H111.459H120.761H126.962L130.579 200L132.646 201.5L135.746 203.5L138.847 206L140.914 207.5L142.464 209.5L144.531 212L148.148 215L150.215 217.5L152.282 220.5L155.9 225L158.483 231L159 236L158.483 241.5L156.416 246H154.866H152.282H142.464L136.78 247.5H132.129L125.928 249.5H122.311L117.66 253L117.144 259.5L111.459 267.5H107.325L100.091 271H95.4402L90.7895 267.5H84.5885L79.9378 271.5V281.5L83.555 284.5L86.1388 286L89.2392 288L90.7895 293V298L86.1388 303Z" fill="#5B2B24"/>
<path d="M134.008 255.792C134.711 255.792 135.384 255.912 136.08 255.912C136.712 255.912 137.998 255.68 138.581 255.939C139.062 256.153 139.99 256.233 140.533 256.273C140.745 256.289 141.223 256.35 141.409 256.454C141.67 256.598 141.992 256.43 142.252 256.574C142.674 256.808 143.56 256.659 144.05 256.748C144.642 256.855 142.838 256.758 142.252 256.628C140.518 256.242 138.672 256.202 136.896 255.819C136.14 255.655 135.382 255.351 134.61 255.31C134.404 255.3 133.165 255.137 133.379 254.923C133.686 254.616 134.402 255.056 134.757 255.07C135.057 255.081 135.456 255.142 135.76 255.197C136.098 255.258 136.65 255.235 136.95 255.371C137.481 255.612 138.239 255.321 138.762 255.611C139.153 255.829 140.229 255.912 140.694 255.912C141.297 255.912 141.869 256.033 142.492 256.033C142.991 256.033 143.863 256.005 144.117 256.514" stroke="black" stroke-linecap="round"/>
<path d="M886.653 272.977C887.357 272.977 888.029 273.098 888.726 273.098C889.357 273.098 890.644 272.866 891.227 273.125C891.707 273.338 892.635 273.419 893.179 273.459C893.39 273.474 893.868 273.536 894.055 273.639C894.315 273.784 894.637 273.615 894.897 273.76C895.319 273.994 896.206 273.844 896.696 273.934C897.287 274.041 895.484 273.944 894.897 273.813C893.164 273.428 891.317 273.388 889.542 273.004C888.785 272.841 888.028 272.537 887.255 272.496C887.05 272.485 885.811 272.322 886.025 272.108C886.331 271.802 887.048 272.242 887.402 272.255C887.702 272.267 888.102 272.327 888.405 272.382C888.743 272.444 889.296 272.42 889.595 272.556C890.127 272.798 890.885 272.507 891.407 272.797C891.798 273.014 892.874 273.098 893.339 273.098C893.942 273.098 894.515 273.218 895.138 273.218C895.637 273.218 896.508 273.19 896.763 273.7" stroke="black" stroke-linecap="round"/>
<path d="M144 297C144 297.35 144.375 297.602 144.542 297.903C144.762 298.299 144.961 298.53 145.297 298.832C145.793 299.278 146.309 299.882 146.888 300.223C147.557 300.616 148.507 301.125 149.295 301.212C149.764 301.264 150.221 301.602 150.686 301.687C151.192 301.779 151.221 301.416 151.488 301.119C151.716 300.866 151.98 300.537 152.057 300.189C152.096 300.011 152.256 299.899 151.97 299.888C151.62 299.875 151.339 299.776 151.007 299.674C150.015 299.369 149.081 299.149 148.119 298.779C147.286 298.458 146.49 297.984 145.638 297.722C145.498 297.679 145.335 297.481 145.204 297.481C145.046 297.481 145.779 298.156 145.819 298.19C146.466 298.742 147.215 299.069 147.911 299.534C148.322 299.808 148.688 300.163 149.122 300.423C149.654 300.743 151.481 301.092 150.86 301.092" stroke="black" stroke-linecap="round"/>
<path d="M145.5 770L148 766.5L148.5 766L152.5 769L159.5 773.5L163 776.5L167.5 779L168.5 781L167.5 782L168.5 784V786V789L169.5 793L171 797L173.5 799.5L181.5 807L187.5 811.5L193 815L197.5 819.5L196 823L193 824.5L189.5 825.5L184 826.5L177.5 828.5H173C171.5 827.833 168.3 826.5 167.5 826.5C166.7 826.5 164.167 825.167 163 824.5L157 821L150.5 817L148 814L145.5 811.5L144 808L142 806H139L132.5 808L128.5 806L125.5 803.5L122 802V798L123 794.5L125.5 791L127.5 786L131.5 782L134.5 777.5L139 772.5L142 771.5L145.5 770Z" fill="#6B433C"/>
<path d="M169.5 780.5L148.5 765.5L145.5 769.5L167 784L169.5 780.5Z" fill="#ABABAB"/>
<path d="M463.46 682.554L439.219 703.433L445.055 707.052L468.576 685.587L463.46 682.554Z" fill="#ABABAB"/>
<path d="M362.5 312.5L372 309.5H380L375 338L369 335.5H362.5L358.5 332.5H348.5L345.5 315H354L362.5 312.5Z" fill="#E19A80"/>
<path d="M349.5 398.5H342V412L339.5 420H346.5L349.5 423.5L362 426L370 423.5V402.5V390L357 395L349.5 398.5Z" fill="#E19A80"/>
<path d="M642 761L689.5 766.5L704.5 687L708.5 683L712.5 687L802.5 805L840.5 775L779 699.5L749 662.5L752.5 657L856.5 578.5L867.5 531L850.5 525L830.5 517L814 506L802.5 495.5L789.5 509.5L665.5 597.5L642 761Z" fill="#484848"/>
<path d="M869.5 388V400L894.5 391.5L914.5 377L935 364L951 351L959.5 374L961 396L956 426.5L942 463.5L929 505.5L923.5 558.5L929 578.5L938 599L916.5 613L894.5 618L869.5 613L858 604.5V578.5L866.5 525L875 470.5V456.5V449.5H866.5L849.5 456.5L817 463.5H801L697.5 456.5L690 450.5V423L806 417L827 412L840.5 404.5L843.5 399.5L840.5 396H834.5L792.5 400L770 396L702 381L707 351H722.5L788.5 365L817 361.5L861.5 356L894.5 347L907 351L881 371L869.5 388Z" fill="#5A5A5A"/>
<path d="M796.5 501.5L805.5 492.5L823.5 508.5L836.5 515.5L852.5 524L866 529L864.5 539L847 532.5L830.5 524L815 515.5L796.5 501.5Z" fill="#D9D9D9"/>
<path d="M814.5 478.5L805.5 492.5L818 505.5L828.5 512L844 521.5L866 528.5L869 512L872.5 491.5L875.5 470.5V449H866.5L850 456.5L826.5 461L814.5 478.5Z" fill="#C53A3A"/>
<path d="M904 359L900.5 356L883 369L873.5 379.5L868 389.5L869.5 400.5L883 395.5L894.5 392L911 379.5L933.5 365L950.5 351.5L933 359L920 362L904 359Z" fill="#C53A3A"/>
<path d="M646 766.5V762L679.5 765L677 770.5L646 766.5Z" fill="#D9D9D9"/>
<path d="M815 805.5L811.5 799.5L836 778.5V785.5L842 790L815 805.5Z" fill="#D9D9D9"/>
<path d="M640.5 770.5L646.5 766.5L677.5 770.5V776.5L678.5 782V784.5L681 791.5V798L678.5 803.5L673.5 805.5L666 803.5H659.5L655.5 800.5V798L653.5 795.5H649.5L646.5 798L642.5 800.5H633.5H626.5H618.5L607 798H597L590.5 795.5L589 791.5V788L590.5 784.5L600 782H607H614.5L622.5 779.5L629.5 777.5L636.5 774L640.5 770.5Z" fill="black"/>
<path d="M889.5 263L903 265L908 275.5L914.5 281L917 285.5L923 287.5H928H932H944L948.5 290.5V296.5L944 303.5L938.5 311V315.5L941.5 321L948.5 325L951 323L958 315.5L967 303.5L970.5 296.5L974 285.5V269.5V259.5L970.5 253L964.5 244.5L960 236L948.5 224L941.5 222L932 218.5H923H914.5L903 222L891.5 228.5L878.5 236L870 242.5V253L872.5 259.5L878.5 263H889.5Z" fill="black"/>
<ellipse cx="889" cy="281" rx="3" ry="4" fill="black"/>
<ellipse cx="141" cy="260.5" rx="4" ry="2.5" fill="black"/>
<path d="M881.625 323.1C883.861 323.1 888.62 322.35 890.469 320.87C891.103 320.363 894.811 319.209 893.046 319.601C891.442 319.958 889.672 320.897 888.239 321.716C887.089 322.374 880.016 323.739 880.933 323.793C884.539 324.005 888.258 325.337 891.661 323.447C891.908 323.309 894.571 321.127 894.468 321.024C893.752 320.308 891.134 321.716 890.277 321.716C888.512 321.716 881.099 323.793 886.47 323.793C888.093 323.793 890.078 324.106 891.661 323.754C894.861 323.043 890.703 322.831 889.623 323.139C888.868 323.355 889.587 324.485 888.547 324.485C887.582 324.485 886.82 323.793 885.778 323.793C884.192 323.793 882.755 324.485 880.933 324.485" stroke="black" stroke-linecap="round"/>
<path d="M888.547 321.716C888.109 322.105 884.652 323.688 884.817 323.754C885.506 324.029 888.082 324.028 888.547 323.446C889.342 322.453 891.213 323.747 892.008 322.754C892.349 322.328 893.526 320.337 892.7 321.37C889.985 324.764 893.468 320.05 889.931 322.408" stroke="black" stroke-linecap="round"/>
<path d="M815 813V805.5L841 790L846 793L850.5 797.5L856 805.5L861.5 810.5L863.5 819.5L861.5 822.5L856 827H849H843.5L841 829.5L839 835.5L835.5 839.5L828 847L815 852.5H800L790.5 849.5V847V842.5L798.5 835.5L806 829.5L811.5 822.5L815 813Z" fill="black"/>
<path d="M533.837 335.385L527.298 304L544.618 307.059L544.87 341.327L535.728 357.394L537.836 381.152L527.326 404.962L523.32 427.641L515.1 402.803L526.803 375.21L523.502 355.234L533.837 335.385Z" fill="white"/>
</svg>
